# xmcd
#
# Track frame offsets: 
#        150
#        22017
#        40322
#        62235
#        81025
#        101449
#        135129
#        160129
#        179317
#        213586
#        242626
#        253908
#        274420
#        293284
#        314700
#
# Disc length: 4785 seconds
#
# Revision: 0
# Processed by: cddbd v1.5.2PL0 Copyright (c) Steve Scherf et al.
# Submitted via: ExactAudioCopy v1.1
#
DISCID=d512af0f
DTITLE=Various Artist - Trail Of The Wolf - vol.04 - Various Of The B
DTITLE=lues  CD1
DYEAR=2017
DGENRE=Blues
TTITLE0=Ronnie Earl - Ships Passing In The Night
TTITLE1=Dennis Jones - When Youre Not Around
TTITLE2=The Notting Hillbillies - Feel Like Going Home
TTITLE3=Black Cat Bone - Nadine
TTITLE4=Windy City Strugglers - Corner
TTITLE5=Joe Beard and Ronnie Earl - Sinners Prayer
TTITLE6=Eric Burdon - GTO
TTITLE7=Terry Quiett Band - Close to You
TTITLE8=Popa Chubby and Galea - Sleepwalk
TTITLE9=Enrico Crivellaro - Cape Flats
TTITLE10=Ronnie Earl - Sick And Tired
TTITLE11=Tommy Castro - Backup Plan
TTITLE12=David Gogo - I Found A Love
TTITLE13=Too Slim and the Taildraggers - Get Your Going Out On
TTITLE14=Stoney Curtis Band - Blues Without You
EXTD=
EXTT0=
EXTT1=
EXTT2=
EXTT3=
EXTT4=
EXTT5=
EXTT6=
EXTT7=
EXTT8=
EXTT9=
EXTT10=
EXTT11=
EXTT12=
EXTT13=
EXTT14=
PLAYORDER=
